<?xml version="1.0" encoding="UTF-8" standalone="no"?>
<!-- Created with Inkscape (http://www.inkscape.org/) -->

<svg
   width="178.0377mm"
   height="61.308792mm"
   viewBox="0 0 178.0377 61.308792"
   version="1.1"
   id="svg1"
   xml:space="preserve"
   xmlns="http://www.w3.org/2000/svg"
   xmlns:svg="http://www.w3.org/2000/svg"><defs
     id="defs1" /><g
     id="layer1"
     transform="translate(-9.5967238,-141.95147)"><g
       id="g11"
       style="fill:#ffffff;fill-opacity:1"
       transform="translate(-1.7573068,104.26687)"><path
         d="m 157.48706,76.524681 c 3.8449,1.717914 8.99875,2.781409 14.72525,2.781409 8.83519,0 17.17942,-2.699683 17.17942,-11.861839 0,-15.134105 -23.72401,-8.426065 -23.72401,-17.670224 0,-4.008468 4.33571,-5.726383 9.16243,-5.726383 4.58116,0 8.50779,1.145056 11.86201,2.944973 l 1.14505,-5.562819 c -3.68117,-1.799751 -8.2625,-3.026975 -13.49786,-3.026975 -8.91709,0 -16.0342,3.354103 -16.0342,11.616439 0,15.052378 23.72401,8.426065 23.72401,17.752061 0,4.253923 -4.82673,5.890111 -10.47138,5.890111 -4.74473,0 -9.24416,-0.981823 -12.92534,-2.536174 z"
         style="fill:#ffffff;fill-opacity:1;fill-rule:evenodd;stroke-width:0.551091"
         id="path7" /><path
         d="m 147.15785,78.733727 h 7.28035 V 44.494413 h -3.77227 c -0.65001,0 -1.17707,-0.527063 -1.17707,-1.17768 v -4.014089 h -2.33101 z m 3.50764,-41.04914 v 0 h 5.62559 v 5.625863 h -4.84128 c -0.43161,0 -0.78431,-0.353028 -0.78431,-0.784477 z"
         style="fill:#ffffff;fill-opacity:1;fill-rule:evenodd;stroke-width:0.551091"
         id="path8" /><path
         d="m 144.3544,40.775103 c -4.25359,-1.554021 -9.57112,-2.453951 -14.88848,-2.453951 -12.35286,0 -22.33311,5.644325 -22.33311,20.697034 0,14.806812 9.89857,20.533305 21.10599,20.533305 3.59951,0 6.78988,-0.654531 8.83503,-1.554351 v 3.762901 c 0,9.653124 -4.82656,11.698441 -12.3528,11.698441 -5.64466,0 -10.14398,-1.063329 -13.74343,-2.863411 l -1.14539,5.235691 c 3.35411,1.71808 7.03561,2.78174 11.37115,3.026976 1.88148,0.163729 3.76323,0.163729 5.72638,0.08189 10.38971,-0.491022 17.42466,-4.335761 17.42466,-18.324645 z m -29.69563,17.997682 v 0 c 0,-11.043911 6.79005,-14.807308 14.72542,-14.807308 2.29044,0 5.31742,0.245566 7.68964,1.227223 v 27.078112 c -1.30889,0.654365 -3.76301,1.636023 -7.60791,1.636023 -7.85343,0 -14.80715,-4.172197 -14.80715,-15.13405 z"
         style="fill:#ffffff;fill-opacity:1;fill-rule:evenodd;stroke-width:0.551091"
         id="path9" /><path
         d="m 104.98427,57.381998 c 0,-13.334354 -7.689865,-19.060846 -18.733775,-19.060846 -10.716618,0 -19.551813,5.480761 -19.551813,20.53347 0,15.13394 9.571286,20.778595 22.333222,20.778595 5.562819,0 10.880182,-0.981657 14.970546,-2.781409 l -1.63603,-5.317253 c -2.863299,1.472459 -8.180662,2.535844 -13.170952,2.535844 -8.507902,0 -14.806978,-3.68123 -14.806978,-12.925389 h 30.35016 c 0.16373,-1.145167 0.24562,-2.699683 0.24562,-3.763012 z m -30.59578,-1.06355 v 0 c 0,-9.407558 5.808385,-12.679933 12.025568,-12.679933 6.380913,0 10.880347,3.435939 10.880347,13.089063 H 77.169899 Z"
         style="fill:#ffffff;fill-opacity:1;fill-rule:evenodd;stroke-width:0.551091"
         id="path10" /><path
         d="m 52.524577,66.707663 c 0,9.570956 4.417266,12.598427 10.225486,12.598427 2.863411,0 4.908564,-0.40913 6.708481,-1.063495 L 68.313157,72.84334 c -0.981823,0.490636 -2.045152,0.899766 -3.763177,0.899766 -2.944973,0 -4.74489,-1.554296 -4.74489,-7.526079 V 38.374111 h -7.280513 z"
         style="fill:#ffffff;fill-opacity:1;fill-rule:evenodd;stroke-width:0.551091"
         id="path11" /></g><path
       d="m 47.882255,161.64887 c 0,-13.33436 -7.689808,-19.06085 -18.733553,-19.06085 -10.716949,0 -19.5519778,5.48076 -19.5519778,20.53347 0,15.13394 9.5713958,20.7786 22.3333868,20.7786 5.562764,0 10.880016,-0.98166 14.970376,-2.78141 l -1.636078,-5.31726 c -2.863081,1.47246 -8.180609,2.53585 -13.1709,2.53585 -8.507957,0 -14.806977,-3.68123 -14.806977,-12.92539 h 30.350157 c 0.163895,-1.14517 0.245566,-2.69968 0.245566,-3.76301 z m -30.595723,-1.06355 v 0 c 0,-9.40756 5.808384,-12.67994 12.025733,-12.67994 6.380582,0 10.880182,3.43594 10.880182,13.08907 H 20.067941 Z"
       style="fill:#5dc10b;fill-opacity:1;fill-rule:evenodd;stroke-width:0.551091"
       id="path12" /></g></svg>
