<?xml version="1.0" encoding="UTF-8"?>
<!DOCTYPE svg PUBLIC "-//W3C//DTD SVG 1.1//EN" "http://www.w3.org/Graphics/SVG/1.1/DTD/svg11.dtd">
<!-- Creator: CorelDRAW 2019 (64 Bit) -->
<svg xmlns="http://www.w3.org/2000/svg" xml:space="preserve" width="113.97mm" height="39.2466mm" version="1.1" style="shape-rendering:geometricPrecision; text-rendering:geometricPrecision; image-rendering:optimizeQuality; fill-rule:evenodd; clip-rule:evenodd"
viewBox="0 0 113.9698 39.2466"
 xmlns:xlink="http://www.w3.org/1999/xlink">
 <defs>
  <style type="text/css">
   <![CDATA[
    .fil0 {fill:#056BA7}
    .fil1 {fill:#99C904}
   ]]>
  </style>
 </defs>
 <g id="Camada_x0020_1">
  <metadata id="CorelCorpID_0Corel-Layer"/>
  <g id="_2783890598080">
   <path class="fil0" d="M93.5462 24.8633c2.4613,1.0997 5.7605,1.7805 9.4263,1.7805 5.6558,0 10.9973,-1.7282 10.9973,-7.5933 0,-9.688 -15.1868,-5.3939 -15.1868,-11.3115 0,-2.566 2.7755,-3.6657 5.8653,-3.6657 2.9326,0 5.4462,0.733 7.5934,1.8852l0.733 -3.561c-2.3565,-1.1521 -5.2892,-1.9377 -8.6406,-1.9377 -5.7082,0 -10.2642,2.1471 -10.2642,7.4362 0,9.6357 15.1868,5.3939 15.1868,11.3639 0,2.7231 -3.0898,3.7705 -6.7032,3.7705 -3.0373,0 -5.9176,-0.6285 -8.2741,-1.6235l-0.7332 3.4564z"/>
   <path class="fil0" d="M86.934 26.2774l4.6605 0 0 -21.9181 -2.4148 0c-0.4161,0 -0.7535,-0.3374 -0.7535,-0.7539l0 -2.5696 -1.4922 0 0 25.2416zm2.2454 -26.2774l0 0 3.6012 0 0 3.6014 -3.0991 0c-0.2763,0 -0.5021,-0.226 -0.5021,-0.5022l0 -3.0992z"/>
   <path class="fil0" d="M85.1394 1.9784c-2.7229,-0.9948 -6.1269,-1.5709 -9.5308,-1.5709 -7.9076,0 -14.2964,3.6132 -14.2964,13.2491 0,9.4785 6.3365,13.1443 13.5109,13.1443 2.3042,0 4.3465,-0.419 5.6557,-0.995l0 2.4088c0,6.1794 -3.0897,7.4887 -7.9076,7.4887 -3.6134,0 -6.4936,-0.6807 -8.7978,-1.833l-0.7332 3.3516c2.1471,1.0998 4.5038,1.7807 7.2792,1.9377 1.2044,0.1048 2.409,0.1048 3.6657,0.0524 6.6509,-0.3143 11.1543,-2.7755 11.1543,-11.7304l0 -25.5033zm-19.0095 11.5211l0 0c0,-7.0697 4.3466,-9.4788 9.4264,-9.4788 1.4662,0 3.4039,0.1572 4.9225,0.7856l0 17.3339c-0.8379,0.4189 -2.4089,1.0473 -4.8702,1.0473 -5.0273,0 -9.4787,-2.6708 -9.4787,-9.688z"/>
   <path class="fil0" d="M59.9368 12.6092c0,-8.5359 -4.9226,-12.2017 -11.9923,-12.2017 -6.8602,0 -12.516,3.5085 -12.516,13.1444 0,9.6879 6.127,13.3013 14.2965,13.3013 3.561,0 6.9649,-0.6284 9.5833,-1.7805l-1.0473 -3.4038c-1.8329,0.9426 -5.2368,1.6233 -8.4313,1.6233 -5.4463,0 -9.4786,-2.3565 -9.4786,-8.2741l19.4285 0c0.1048,-0.7331 0.1572,-1.7282 0.1572,-2.4089zm-19.5857 -0.6808l0 0c0,-6.0222 3.7182,-8.117 7.6981,-8.117 4.0847,0 6.965,2.1995 6.965,8.3789l-12.8826 0 -1.7805 -0.2619z"/>
   <path class="fil0" d="M26.3551 18.579c0,6.1268 2.8277,8.0648 6.5458,8.0648 1.833,0 3.1422,-0.2619 4.2944,-0.6808l-0.7332 -3.4563c-0.6285,0.3141 -1.3092,0.576 -2.409,0.576 -1.8852,0 -3.0374,-0.995 -3.0374,-4.8178l0 -17.8235 -4.6606 0 0 18.1376z"/>
   <path class="fil1" d="M24.5083 12.6092c0,-8.5359 -4.9226,-12.2017 -11.9922,-12.2017 -6.8604,0 -12.5161,3.5085 -12.5161,13.1444 0,9.6879 6.1271,13.3013 14.2966,13.3013 3.561,0 6.9648,-0.6284 9.5832,-1.7805l-1.0473 -3.4038c-1.8328,0.9426 -5.2368,1.6233 -8.4313,1.6233 -5.4463,0 -9.4786,-2.3565 -9.4786,-8.2741l19.4285 0c0.1049,-0.7331 0.1572,-1.7282 0.1572,-2.4089zm-19.5857 -0.6808l0 0c0,-6.0222 3.7182,-8.117 7.6982,-8.117 4.0845,0 6.9649,2.1995 6.9649,8.3789l-12.8826 0 -1.7805 -0.2619z"/>
  </g>
 </g>
</svg>
